<?xml version="1.0" encoding="UTF-8"?><svg id="Layer_1" xmlns="http://www.w3.org/2000/svg" width="401.37" height="136.11" viewBox="0 0 401.37 136.11"><defs><style>.cls-1{fill:#48296d;}.cls-2{fill:#492267;}.cls-3{fill:#cbbf81;}</style></defs><g><g><path class="cls-2" d="M73.9,135.91c2.3-.17,4.62-.45,6.95-.86,37.89-6.53,63.32-46.18,53.48-83.4C126.12,20.61,99.56,.09,67.39,.02,46.13-.02,.12,.02,.12,.02,.12,.02-.15,46.97,.12,69.31c.06,5.55,.89,11.24,2.36,16.59,8.08,29.44,33.08,48.73,62.33,50.15,.33,.02,.66,.02,.99,.03,.47,.02,.95,.03,1.43,.04l-3.22-43.53c2.21-2.26,3.51-5.08,4.76-7.25l.56,20.34c.02,.7,.59,1.25,1.29,1.23,.75-.01,1.36-.62,1.39-1.37l1.01-33.98,.15-2.01c-1.17,1.84-2.3,3.98-3.44,6.44-6.82,14.76-11.62,19.31-12.99,20.39-3.74,3.24-8.51,5.03-13.47,5.03-11.34,0-20.57-9.23-20.57-20.57,0-9.48,6.6-17.81,15.77-20-.26-15.14,9.54-26.58,24.91-29.09,12.18-1.98,22.58,2.92,29.31,13.28l-.81,.32c-4.82-7.42-17.17-11.01-26.72-8.42-11.81,3.2-19.55,14.9-17.58,26.98l.77,4.71-4.76,.4c-.8,.07-2.24,.22-2.79,.34-5.38,1.14-9.28,5.98-9.28,11.49,0,6.48,5.27,11.74,11.74,11.74,2.86,0,5.61-1.04,7.75-2.92l.36-.28h0s4.05-3.48,10.34-17.09c.23-.49,.47-.93,.7-1.41l-1.19-16.02c-.4-5.43,3.9-10.07,9.35-10.07s9.75,4.63,9.35,10.07l-.44,5.95c-.03,.57-.07,1.17-.12,1.8,0,0,0,0-.01,.01l-5.43,73.29h0Zm13.87-85.2l.03-.02h1.34c14.4,0,25.43,11.43,24.56,24.94-.76,11.79-6.91,19.53-16.03,23.54l-.26-.68c6.41-3.46,11.72-13.33,11.23-22-.67-11.86-9.72-16.73-19.04-16.97h-.49c-.06,0-.11,0-.17,0-2.57,0-4.53,.36-6.66,1.35,.03-1.98,.52-6.16-.31-9.16,2.16-.69,3.35-.91,5.8-1Z"/><path class="cls-1" d="M70.72,50.47c-2.07,0-3.7,1.76-3.54,3.82l.56,7.58c2.01-2.68,4.14-4.85,6.45-6.54l.08-1.04c.15-2.06-1.48-3.82-3.54-3.82Z"/></g><g><g><path class="cls-3" d="M229.31,113.93l-2.65-8.18h-13.84s-2.65,8.18-2.65,8.18h-10.03l14.24-38.39h11.01l14.18,38.39h-10.26Zm-9.57-30.73l-4.84,15.17h9.63l-4.79-15.17Z"/><path class="cls-3" d="M250.98,113.93v-38.39h9.17v38.39h-9.17Z"/><path class="cls-3" d="M274.73,113.93v-38.39h9.17v30.21h19.43v8.18h-28.59Z"/><path class="cls-3" d="M327.71,114.63c-12.28,0-19.6-8.77-19.6-19.89s7.32-19.89,19.6-19.89,19.72,8.82,19.72,19.89-7.44,19.89-19.72,19.89Zm0-31.36c-6.57,0-10.09,5.13-10.09,11.47s3.52,11.48,10.09,11.48,10.15-5.08,10.15-11.48-3.57-11.47-10.15-11.47Z"/><path class="cls-3" d="M380.29,113.93l-6.92-13.32h-7.15v13.32h-9.23v-38.39h18.04c9.51,0,14.41,5.08,14.41,12.23,0,5.71-3.58,9.39-7.15,11.06l8.24,15.11h-10.26Zm-5.42-30.16h-8.64v9.51h8.64c3,0,5.25-1.78,5.25-4.79s-2.3-4.73-5.25-4.73Z"/><polygon class="cls-3" points="181.22 83.77 181.22 113.92 172 113.92 172 83.77 160.12 83.77 160.12 75.53 193.15 75.53 193.15 83.77 181.22 83.77"/></g><g><path class="cls-3" d="M192.53,36.94c-2.59-4.53-6.02-6.53-10.54-6.53-6.99,0-11.26,5.7-11.26,13.26s4.27,13.52,11.26,13.52c4.85,0,7.96-2.53,10.41-7.12l8.54,4.46c-3.88,7.24-10.29,11.58-19.15,11.58-12.81,0-21.67-8.99-21.67-22.38s8.86-22.25,21.6-22.25c7.63,0,14.49,3.1,18.95,10.74l-8.15,4.72Z"/><path class="cls-3" d="M212,65.34V22.26h10.29V56.16h21.8s0,9.19,0,9.19h-32.08Z"/><path class="cls-3" d="M269.81,66.83c-13.78,0-21.99-9.83-21.99-22.32s8.21-22.32,21.99-22.32,22.12,9.9,22.12,22.32-8.35,22.32-22.13,22.32Zm0-35.19c-7.38,0-11.32,5.76-11.32,12.88s3.95,12.87,11.32,12.87,11.38-5.69,11.38-12.87-4.01-12.88-11.38-12.88Z"/><path class="cls-3" d="M340.02,49.37c0,11.26-7.57,17.47-18.83,17.47s-18.89-6.21-18.89-17.47V22.98h10.35v26.39c0,5.24,2.91,8.09,8.54,8.09s8.54-2.85,8.54-8.09V22.98h10.29v26.39Z"/><path class="cls-3" d="M350.57,65.35V22.27s17.86,0,17.86,0c14.36,0,22.12,9.32,22.12,21.54s-7.77,21.54-22.13,21.54h-17.85Zm17.86-9.19c7.5,0,11.45-4.79,11.45-12.35s-3.94-12.29-11.45-12.29h-7.5v24.65h7.5Z"/></g></g></g><g><path class="cls-3" d="M397.82,27.61c.23-.32,.34-.67,.34-1.06,0-.33-.08-.64-.24-.91-.16-.27-.4-.49-.72-.65-.32-.16-.71-.24-1.17-.24h-2.07v5.99h.98v-2.4h.75l1.38,2.4h1.17l-1.48-2.48c.47-.12,.82-.33,1.05-.65Zm-2.87-.05v-2.01h1.09c.37,0,.65,.09,.84,.26,.18,.18,.28,.42,.28,.73s-.09,.56-.28,.74c-.19,.18-.46,.28-.83,.28h-1.09Z"/><path class="cls-3" d="M395.96,22.48c-2.98,0-5.41,2.43-5.41,5.41s2.43,5.41,5.41,5.41,5.41-2.43,5.41-5.41-2.43-5.41-5.41-5.41Zm0,10.1c-2.59,0-4.69-2.1-4.69-4.69s2.1-4.69,4.69-4.69,4.69,2.1,4.69,4.69-2.1,4.69-4.69,4.69Z"/></g></svg>