<?xml version="1.0" encoding="UTF-8"?>
<svg xmlns="http://www.w3.org/2000/svg" version="1.1" viewBox="0 0 178.7 30.1">
  <defs>
    <style>
      .cls-1 {
        fill: #fdfdfb;
      }

      .cls-2 {
        fill: #fff;
      }

      .cls-3 {
        fill: #fffffd;
      }
    </style>
  </defs>
  <!-- Generator: Adobe Illustrator 28.7.2, SVG Export Plug-In . SVG Version: 1.2.0 Build 154)  -->
  <g>
    <g id="Layer_1">
      <g id="Layer_1-2" data-name="Layer_1">
        <path class="cls-2" d="M10,15.3c0-.7,0-.6-.5-.6H1.1c-.2,0-.4,0-.6,0-.3,0-.4-.3-.4-.6,0-.2,0-.5.3-.6,0,0,.2,0,.3,0h9.2c.4,0,.5,0,.6-.4,0-.1,0-.2-.1-.2H3.3c-.3,0-.6-.3-.6-.7,0-.3.2-.6.6-.7h8.1c.3,0,.3-.1.3-.4V3.2c0-.4.3-.6.6-.6s.7.2.7.6v7.1c.2,0,.3,0,.4,0,.2,0,.2-.2.2-.3V.6c0-.3.3-.6.6-.6s.6.2.6.6v9c0,.1,0,.3,0,.3.1,0,.3,0,.4,0,0,0,0,0,0,0V.6c0-.3.3-.7.7-.6.3,0,.6.2.7.6v9.1c0,.4,0,.5.5.6,0,0,.2,0,.2,0V3.2c0-.3.3-.5.6-.6.3,0,.6.2.7.6v8c0,.2.2.3.4.3h8.1c.4,0,.6.3.6.7s-.3.7-.7.7h-7.2c.2.7.1.6.7.6h9.2c.3,0,.6.3.6.6s-.2.6-.5.7c-.2,0-.3,0-.5,0h-9c0,0-.1,0-.2.2v.2c0,.2,0,.2.2.2h9.2c.4,0,.7.3.7.7s-.3.7-.7.7h-9.2c-.5,0-.6,0-.6.6.2,0,.3,0,.5,0h6.8c.3,0,.6.3.6.6,0,.3-.2.6-.5.7-.2,0-.3,0-.5,0h-7.6c-.4,0-.4,0-.4.4v7.9c0,.3-.3.5-.6.5s-.6-.2-.7-.6v-6.8c0-.1,0-.3,0-.4-.2,0-.3,0-.5,0,0,0,0,0,0,.2v9.4c0,.3-.3.6-.7.6s-.6-.2-.7-.6v-9q0-.3-.3-.3c-.2,0-.3,0-.3.2v9.1c0,.3-.3.6-.7.6s-.6-.2-.6-.6v-9.1c0-.5,0-.4-.4-.6-.1,0-.2,0-.2,0v7c0,.4-.3.6-.7.6s-.6-.2-.7-.6v-7.7c0-.6,0-.6-.6-.6H3.1c-.3,0-.5-.3-.5-.7,0-.3.3-.6.6-.6h7.2c0,0,0,0,0-.1,0,0,0,0,0-.1-.2-.4,0-.4-.5-.4H.7c-.3,0-.6-.3-.6-.6s.2-.6.5-.7h9.5,0ZM19.3,15c0-1.7-1.3-4-4-4s-4.1,1.7-4.1,4,1.8,4,4.1,4,4-1.8,4-4h0Z"/>
        <path class="cls-2" d="M84.1,15.8h-3.6c0,0-.1,0-.2.1h0c0,1,.1,1.9.4,2.7.5,1.3,1.4,1.9,2.8,2.1.5,0,1,0,1.6,0,.7-.1,1.3-.4,1.8-.9.2-.2.3-.3.5-.5,0,0,0,0,.2,0s.2.1.1.2c0,0,0,.2-.2.3-.8,1.2-1.9,2-3.3,2.3-1.3.3-2.7.3-4-.2-1.7-.6-2.9-1.8-3.5-3.5-.5-1.5-.5-3,0-4.5.6-2,2-3.3,4.1-4,1.1-.4,2.3-.4,3.5,0,1.9.5,3.1,1.8,3.5,3.7,0,.6.1,1.1,0,1.6,0,.5,0,.5-.6.5h-3.2,0ZM82.4,15.3h1.9c.2,0,.3,0,.3-.2,0-.9,0-1.7,0-2.6,0-.4-.1-.9-.3-1.3-.2-.3-.5-.6-.9-.8-.8-.3-1.9-.2-2.4.8-.2.3-.3.7-.4,1-.2.6-.2,1.2-.3,1.7,0,.4,0,.8,0,1.2,0,0,0,.2.2.2h2Z"/>
        <path class="cls-2" d="M116,15.8h-3.2q-.5,0-.4.5c0,.9.2,1.7.5,2.5.3.7.7,1.2,1.4,1.6.4.2.9.3,1.3.4.6,0,1.2,0,1.8,0,.6-.1,1.1-.4,1.6-.8.2-.2.3-.3.5-.5,0,0,.1,0,.2,0,0,0,.2.2,0,.3,0,0,0,.2-.1.2-1,1.4-2.3,2.3-4.1,2.5-.8,0-1.6,0-2.4-.1-2.1-.5-3.5-1.7-4.1-3.8-.4-1.3-.5-2.7-.1-4.1.5-1.9,1.7-3.2,3.5-4,1.4-.6,2.8-.7,4.3-.3,1.6.4,2.6,1.5,3.1,3,.3.7.3,1.5.3,2.2,0,.2,0,.3,0,.4,0,0,0,.2-.2.2h-3.6ZM114.5,15.3h1.9c.2,0,.2,0,.3-.2h0c0-.9,0-1.7,0-2.5,0-.4-.1-.9-.3-1.2s-.4-.7-.8-.9c-.9-.5-2.1-.1-2.6.8-.2.3-.3.7-.4,1-.2.5-.2,1.1-.3,1.6,0,.4,0,.8,0,1.2s0,.2.2.2h1.9Z"/>
        <path class="cls-2" d="M61.3,19.3s0,0,0,0c.2.1.2.2,0,.3-.4.6-.8,1.2-1.4,1.6-.8.7-1.8,1-2.9,1.1-1,0-1.9,0-2.9-.2-1.9-.6-3.2-1.9-3.7-3.8-.4-1.3-.4-2.7,0-4.1.7-2.2,2.2-3.6,4.5-4.2,1.1-.3,2.2-.2,3.3,0,1.7.5,2.8,1.7,3.2,3.5.2.6.2,1.2,0,1.9,0,0,0,.2,0,.2,0,.2,0,.2-.3.2h-6.7c-.6,0-.6,0-.5.6,0,.6,0,1.2.3,1.7,0,.3.2.7.4,1,.4.7,1,1.3,1.8,1.5,1,.3,1.9.2,2.9,0,.6-.2,1.1-.6,1.6-1,0,0,.2-.2.3-.3h0ZM56.3,15.3h1.8q.3,0,.3-.3c0-.6,0-1.3,0-1.9,0-.6,0-1.1-.3-1.6-.3-1-1.2-1.4-2.3-1.1-.5.1-.9.4-1.1.9-.3.5-.4,1.1-.5,1.6,0,.5-.1,1-.2,1.5v.7c0,.2,0,.2.3.2h1.9,0Z"/>
        <path class="cls-2" d="M70.8,12.8v7.3c0,.2,0,.4,0,.6,0,.4.3.7.7.8,0,0,.2,0,.3,0,0,0,.2,0,.2.2s-.1.1-.2.1h-5.7s0,0,0,0c0,0,0-.1,0-.2s.2,0,.3,0c.6-.2.9-.6.9-1.2V7c0-.4-.3-.7-.6-.8-.1,0-.3,0-.4-.1,0,0-.1,0-.1-.2s0-.1,0-.1c0,0,.2,0,.3,0,1.3-.3,2.6-.6,3.9-.9,0,0,.2,0,.3,0,.2,0,.3.2.3.4v1.1c0,1.2,0,2.5,0,3.7v2.9h0Z"/>
        <path class="cls-2" d="M95.3,10.1h2.9c.1,0,.3,0,.4.1,0,.2-.2.2-.3.2s-.3,0-.4.1c-.3.2-.5.4-.4.8,0,.2,0,.3.1.5.8,2.1,1.6,4.2,2.4,6.2,0,0,0,.2.1.3,0,0,0,0,0,0s0,0,0,0c0,0,0-.2.1-.3.8-2.1,1.5-4.1,2.2-6.2,0-.2.2-.4.2-.7s-.1-.5-.4-.6c-.2,0-.3-.1-.5-.2,0,0-.2,0-.3,0,0,0,0,0,0-.1s0-.1,0-.1h3.2c0,0,.2,0,.3,0,0,0,0,.2-.2.2-.2,0-.3,0-.4,0-.6.1-1,.5-1.2,1.1-.3.7-.5,1.5-.8,2.2-.9,2.6-1.9,5.2-2.8,7.8,0,0,0,.2,0,.2,0,0,0,.2-.2.2h-1.1c-.2,0-.3,0-.3-.2-.2-.5-.4-.9-.6-1.4-1.2-2.9-2.4-5.8-3.6-8.6,0,0,0-.1,0-.2-.3-.6-.7-1.1-1.4-1.2-.2,0-.3-.1-.2-.2,0-.1.2,0,.3,0,1,0,2,0,3,0Z"/>
        <path class="cls-3" d="M172.7,14.7c.2,0,.2,0,.3-.2.4-.3.9-.5,1.3-.7.6-.2,1.3-.3,2-.1.8.2,1.3.7,1.5,1.5,0,.3,0,.6,0,.9v4.8c0,.3.2.5.4.7,0,0,.2,0,.3.1h0c0,0,0,.2,0,.2h-3.8c0,0-.1,0-.2,0,0,0,0-.1,0-.1,0,0,.2,0,.3,0,.3-.1.4-.3.4-.6v-5.7c0-.4-.3-.7-.7-.8-.3,0-.6,0-.9,0-.3,0-.7.3-1,.5-.1,0-.2.2-.2.3v5.6c0,.3.2.5.4.6,0,0,.2,0,.2,0,0,0,0,0,0,.1,0,0,0,0,0,0h-3.8s0,0,0,0c0,0,0-.1,0-.1.6-.1.7-.5.7-1.1v-4.9c0-.2,0-.3,0-.5,0-.2-.2-.3-.3-.4-.1,0-.4,0-.4-.2s.3-.2.4-.2c.7-.2,1.5-.5,2.2-.7.3,0,.4,0,.4.2s0,.5.1.7h0Z"/>
        <path class="cls-1" d="M39,15V1.7c0-.2,0-.3.3-.4.2,0,.4-.1.7,0,.4,0,.5.2.5.6v26.6c0,.2,0,.3-.3.4-.2,0-.5.1-.7,0-.3,0-.4-.2-.4-.5v-13.3h0Z"/>
        <path class="cls-2" d="M162.2,22.2c-.4,0-.9,0-1.4-.2-1.3-.4-2.2-1.2-2.6-2.4-.3-1-.4-2.1,0-3.1.4-1.4,1.3-2.3,2.7-2.7,1-.3,1.9-.3,2.9,0,1.4.5,2.2,1.4,2.6,2.8.3,1,.2,2-.1,3-.5,1.5-1.8,2.4-3.4,2.6h-.5ZM160.5,17.9v.6c0,.5,0,1.1,0,1.6,0,.3.1.6.2.9.2.6.6.8,1.2.8h0c.7,0,1-.3,1.3-.9,0-.2.2-.5.2-.7.1-.6,0-1.2.2-1.8,0-.8,0-1.6,0-2.3,0-.4-.1-.9-.3-1.3-.1-.3-.3-.6-.6-.7-.6-.3-1.6-.2-2,.7,0,.3-.2.6-.2.9-.1.7,0,1.5,0,2.2h0Z"/>
        <path class="cls-2" d="M144.4,21c-.2,0-.2,0-.3.2-.2.2-.4.4-.7.6-.4.3-.8.4-1.3.5-.5,0-.9,0-1.3-.2-1-.4-1.3-1.3-1.2-2.1,0-.4.3-.7.5-1,.3-.3.8-.6,1.2-.8.7-.3,1.4-.4,2.1-.6.2,0,.4,0,.6,0,.2,0,.3,0,.3-.2,0-.7,0-1.4,0-2.1,0-.2,0-.5-.2-.7-.3-.4-.8-.6-1.2-.3-.2,0-.3.2-.4.4,0,.2-.1.4-.2.6,0,.2,0,.4,0,.6,0,.2,0,.3-.1.4-.2.5-.9.8-1.4.6-.4-.2-.7-.5-.6-1,0-.4.2-.8.6-1.1.3-.2.5-.4.9-.5,1.1-.4,2.2-.5,3.3-.2,1,.2,1.7.9,1.9,1.9,0,.3,0,.6,0,.9v3.9c0,.5.2.7.7.7h.3c0,0,.1.1,0,.2-.3.3-.5.5-.9.7-.4.1-.9.2-1.4,0s-.9-.4-1.1-.8c0,0,0-.2-.1-.3h0ZM144.3,17.7c-.3,0-.6,0-.9.2-.2,0-.4.2-.6.3-.8.5-1.1,1.4-.9,2.2.2.6.8.9,1.4.7.3,0,.5-.2.7-.4.2-.1.3-.2.3-.5v-2.2c0,0,0-.2,0-.2h0Z"/>
        <path class="cls-3" d="M154,15.8v5.2c0,.4.2.6.5.7,0,0,.1,0,.2,0,0,0,0,0,0,0,0,0,0,0,0,0h-3.8c0,0-.2,0-.2,0,0-.1,0-.1.2-.2,0,0,.1,0,.2,0,.3-.1.4-.3.4-.6v-9.1c0-.3-.2-.6-.5-.7,0,0-.3,0-.3-.2s.2-.2.3-.2c.8-.2,1.6-.4,2.4-.6,0,0,.2,0,.2,0,.2,0,.3,0,.3.3v.2c0,1.7,0,3.4,0,5h0Z"/>
        <path class="cls-3" d="M130.1,20.5v-.9s0,0,0,0h0c0,0,0,.1.1.2.1.2.3.5.4.7,0,.2.2.3.3.4.6.9,1.4,1.2,2.6.8.1,0,.2,0,.3-.2.9-.5.8-1.7,0-2.1-.3-.1-.5-.2-.7-.3-.4-.1-.8-.2-1.1-.3-.5-.2-.9-.4-1.3-.7-1.1-.9-1.1-2.4-.3-3.3s.9-.8,1.5-1c1.2-.3,2.4-.2,3.6.2.2,0,.3.2.3.4,0,.5,0,.9,0,1.4,0,0,0,0,0,0s0,0-.1,0c0,0-.1-.2-.2-.3-.2-.2-.3-.5-.4-.7-.1-.2-.3-.4-.4-.5s-.3-.3-.5-.3c-.6-.1-1.1,0-1.7.2-.7.4-.6,1.3-.2,1.7.2.2.4.3.7.4.4.2.9.3,1.3.4.4,0,.8.2,1.1.4,1.7.8,1.7,3.2.3,4.2-.5.3-1.1.6-1.7.7-.7,0-1.5,0-2.2,0-.5,0-.9-.3-1.4-.5-.1,0-.2-.2-.2-.3v-.8h0Z"/>
        <path class="cls-3" d="M116.9,2.9c.3,0,.7.1.9.3.3.2.4.5.3.9,0,.3-.2.6-.4.8-.2.2-.5.5-.8.7-1,.7-2.1,1.5-3.1,2.2,0,0,0,0-.2,0,0,0-.2,0-.3,0,0,0-.1-.1,0-.2,0-.1.1-.2.2-.3.5-.9,1-1.9,1.6-2.8.2-.3.4-.7.7-1,.3-.3.5-.5.9-.6,0,0,.2,0,.3,0h0Z"/>
        <path class="cls-2" d="M59.9,4c0,.4-.1.7-.3.9-.2.2-.5.5-.8.7-.7.5-1.4,1-2,1.5-.4.3-.8.6-1.2.9-.1,0-.2,0-.3,0s-.1-.2,0-.3c0,0,0-.2.2-.3.5-.9,1-1.9,1.6-2.8.2-.4.4-.7.7-1.1.3-.3.5-.5,1-.6.5,0,1,.1,1.2.5.1.2.2.3.2.5h0Z"/>
      </g>
    </g>
  </g>
</svg>