<svg width="250" height="51" viewBox="0 0 250 51" fill="none" xmlns="http://www.w3.org/2000/svg">
<path d="M25.3871 34.6653L27.9485 33.8115C27.8347 34.7222 27.3793 35.1776 26.5824 35.1776C26.184 35.1776 25.7855 35.0068 25.3871 34.6653ZM28.9162 33.5269L29.5993 33.2992C30.9654 33.6407 31.99 33.8115 32.6161 33.8115C32.3315 34.2669 31.99 34.6084 31.7054 34.8361C31.4208 35.0638 31.1362 35.1776 30.8516 35.1776C30.0546 35.1207 29.4285 34.6084 28.9162 33.5269ZM22.9964 20.4918L29.9977 25.9563C26.924 24.7609 24.5902 24.0209 23.0533 23.6794L22.9964 21.4025V20.4918ZM24.4194 17.7026C24.7609 17.5319 24.9886 17.3611 25.1594 17.2473C25.7855 16.8488 26.3547 16.4504 26.8101 16.0519C27.6639 17.1904 28.8024 18.2719 30.1685 19.2395C30.51 20.6626 31.0223 21.9718 31.7623 23.224L24.4194 17.7026ZM17.2473 12.1243L18.158 10.7582L29.1439 8.99362L33.6976 15.1981L36.0314 23.964C35.6899 24.0209 35.4622 24.0779 35.2345 24.0779C33.6407 24.0779 32.3315 22.0856 31.25 18.158L30.3393 17.3611C29.2008 16.3365 28.1193 15.1981 27.0378 13.8889C25.8994 14.7996 24.5902 15.7673 23.1102 16.678L17.2473 12.1243ZM9.67668 34.7222C8.59517 31.7623 8.0829 28.8024 8.02598 25.8425V24.704C9.90439 23.7364 11.669 21.7441 13.3197 18.6703C13.7751 17.8734 14.0597 17.3611 14.1735 17.0765L15.5966 14.7427L21.6872 19.4672L21.7441 22.2564V25.1024C24.5332 25.5578 27.2655 26.4116 29.9408 27.6639C30.9085 27.4362 31.8192 27.3224 32.5023 27.3224C35.0638 27.3224 36.373 28.1193 36.373 29.7131C36.373 31.3638 35.2345 32.1607 32.9007 32.1607C32.0469 32.1607 30.9654 31.99 29.6562 31.5915C23.964 33.413 19.9795 34.4945 17.7596 34.893C17.1904 34.6653 16.7919 34.4945 16.5073 34.3807C15.0273 33.8115 13.9458 33.3561 13.3766 33.0715L9.67668 34.7222ZM9.05056 36.8852L13.3197 34.8361C14.4012 35.5191 15.9381 36.2022 17.7596 36.8852C19.5811 36.5437 21.6302 35.9176 23.8502 35.1207C24.6471 36.2591 25.5578 36.8852 26.4686 36.8852C27.2655 36.8852 28.0055 36.5437 28.6316 35.8607C29.3147 36.5437 30.0546 36.8852 30.7377 36.8852C31.4208 36.8852 32.0469 36.6007 32.6161 36.0884C33.1853 35.5761 33.6407 34.7222 34.0961 33.6976C35.5761 33.413 36.6576 32.73 37.2837 31.5915L40.699 34.2099L46.6758 36.8852L42.0651 31.3069L37.5683 27.8916C37.1699 26.867 36.373 26.127 35.1776 25.7855C35.9745 25.7286 36.8283 25.5009 37.796 24.9886L34.893 14.3443L29.6562 7.11521L17.5319 9.22132L16.0519 11.3274L1.47998 0C0.512316 0.398452 0 1.19536 0 2.27687C0 2.44763 2.08445e-05 2.61838 0.0569425 2.90299L14.3443 13.9458L13.1489 16.0519C11.3274 19.1826 10.1321 21.1179 9.56283 21.7441C8.99362 22.4271 8.02596 23.0533 6.65984 23.6225C6.60292 24.704 6.60293 25.444 6.60293 25.9563C6.60293 30.1685 7.45675 33.8115 9.05056 36.8852Z" fill="#FB302E"/>
<path d="M240.779 33.868C241.177 33.868 241.519 33.925 241.746 33.9819C242.999 33.925 244.023 33.6403 244.763 33.0142C245.503 32.3881 247.154 30.9081 249.602 28.4605L250 30.5666C245.617 35.7464 242.202 38.3079 239.754 38.1941C238.16 38.1371 236.68 37.5679 235.371 36.4864C234.062 35.4049 233.208 34.0388 232.867 32.3881C232.525 32.6727 232.183 32.9004 231.899 33.0142C231.5 33.0142 231.33 32.7296 231.33 32.1035C231.33 31.5343 231.557 30.965 232.013 30.3958L241.405 19.7515C241.348 18.8407 241.632 18.0438 242.145 17.4176C242.657 16.7915 243.226 16.5069 243.852 16.5069C244.82 16.5069 245.332 17.0192 245.332 17.9869C245.332 18.2146 245.503 19.0684 245.788 20.6622C246.072 22.256 246.243 23.5083 246.243 24.3621C246.186 28.0051 244.422 31.1358 240.779 33.868ZM241.917 26.1267L241.405 22.7114C241.006 23.1098 240.38 23.7929 239.583 24.7606C238.786 25.7282 237.933 26.6959 237.136 27.6635C236.339 28.5743 235.713 29.3143 235.257 29.7697C236.054 29.8266 236.623 29.9974 236.965 30.3958C237.306 30.7943 237.819 31.5911 238.559 32.7865C240.779 31.4204 241.917 29.5989 241.917 27.322V26.1267ZM231.614 8.76558C230.533 8.36713 229.964 7.79791 229.907 6.94408C230.02 5.74873 230.476 4.55335 231.273 3.47184C232.07 2.39033 232.923 1.82113 233.891 1.82113C234.631 1.82113 235.2 1.93497 235.485 2.10574C235.77 2.2765 235.94 2.67494 235.94 3.30108C235.94 3.92722 235.542 5.29336 234.745 7.34254C233.436 10.4163 231.956 12.067 230.248 12.3516C230.134 12.2947 229.964 12.2378 229.736 12.2378C230.59 10.8147 231.216 9.67633 231.614 8.76558ZM214.993 23.2237V23.1098C212.546 24.1344 210.553 25.0452 209.13 25.7851C207.707 26.5251 206.398 27.4928 205.26 28.6882C204.121 29.8835 203.609 31.2496 203.78 32.7296C203.78 33.2988 204.007 33.6403 204.52 33.7542C205.43 33.6973 206.91 32.6158 208.902 30.3958C210.895 28.1759 213.001 25.7851 214.993 23.2237ZM178.165 22.996C174.92 24.3621 172.643 25.5575 171.391 26.5821C170.139 27.6066 169.513 29.2004 169.57 31.3635C169.57 31.8758 169.74 32.1604 170.139 32.2742C170.594 32.5019 172.017 31.3066 174.351 28.7451C176.742 26.1836 177.994 24.2483 178.165 22.996ZM136.1 27.4928C137.921 26.639 139.401 25.6144 140.54 24.2482C141.678 22.9391 142.304 21.9145 142.247 21.2314C142.247 21.1176 142.247 21.0037 142.247 20.9468C142.247 20.8899 142.19 20.8899 142.19 20.8899C142.02 20.6622 141.507 20.833 140.71 21.2884C139.913 21.8006 139.06 22.5406 138.206 23.5652C137.352 24.6467 136.612 25.9559 136.1 27.4928ZM105.931 23.2237V23.1098C103.484 24.1344 101.491 25.0452 100.068 25.7851C98.6452 26.5251 97.336 27.4928 96.1976 28.6882C95.0591 29.8835 94.5469 31.2496 94.7176 32.7296C94.7176 33.2988 94.9453 33.6403 95.4576 33.7542C96.3683 33.6973 97.8483 32.6158 99.8406 30.3958C101.89 28.1759 103.939 25.7851 105.931 23.2237ZM64.2645 15.71L64.4353 15.8238L72.1766 6.48872C74.6243 3.58571 76.6165 2.10574 78.1534 2.10574C78.9503 2.10574 79.6334 2.50418 80.2026 3.30108C80.7718 4.09798 81.0564 4.95183 81.0564 5.9195C81.0564 6.7164 80.8856 7.57021 80.5441 8.53788C80.2026 9.44863 79.4626 11.1563 78.438 13.547C78.1534 14.3439 77.4134 15.71 76.3888 17.7023C75.3073 19.6376 74.795 20.6622 74.8519 20.6622C74.9089 20.6053 74.9658 20.5483 75.0227 20.5483C75.0796 20.5483 75.0796 20.4914 75.1366 20.4914C75.2504 20.3776 76.6734 18.7838 79.4057 15.8238C82.1379 12.8639 84.244 10.4732 85.8378 8.76558C87.4316 7.05793 89.1393 5.23644 91.0177 3.35802C91.6439 2.73189 92.2131 2.44726 92.6684 2.44726C93.2377 2.44726 93.8638 3.01649 94.4899 4.098C95.1161 5.17951 95.4576 6.20409 95.4576 7.00099C95.4576 7.68405 95.2299 8.36712 94.7745 9.1071C93.9207 10.4163 92.6115 12.3516 90.79 15.027C89.0254 17.7023 87.5455 19.9222 86.464 21.7437C85.3825 23.5652 84.4717 25.2159 83.7887 26.6959C82.9348 28.5743 82.4795 30.3389 82.4225 31.9896C82.4225 33.6973 82.9348 34.6649 83.9594 34.7788C84.3009 34.6649 84.4717 34.5511 84.5286 34.5511C87.0901 33.2419 90.2777 30.225 94.0346 25.4436V25.6713C94.3761 25.2728 94.7176 24.8744 95.0591 24.5329C96.8237 22.7683 98.8729 21.2883 101.15 20.093C103.427 18.8976 105.305 18.2715 106.785 18.1007H107.183C107.867 18.1007 108.493 18.3284 109.062 18.7838C109.631 19.2392 109.859 19.8653 109.859 20.6053C109.859 21.0037 109.403 21.4022 108.493 21.8006C109.233 22.256 109.631 22.8822 109.631 23.736C109.631 24.5898 109.29 25.5005 108.607 26.4682C106.956 28.8589 106.102 30.6235 106.102 31.7619C106.159 32.445 106.5 32.8434 107.183 32.9573C108.322 33.1281 110.371 31.7619 113.331 28.802C113.445 28.2897 113.502 27.7205 113.673 27.2082C114.469 24.7036 116.063 21.516 118.397 17.7023C120.731 13.8885 123.065 10.7009 125.341 8.02557C125.968 7.22867 126.594 6.54564 127.106 5.9195C127.675 5.29336 128.244 4.78104 128.814 4.32566C129.44 3.87029 129.952 3.64263 130.464 3.64263C130.92 3.64263 131.375 3.8134 131.717 4.21185C132.4 5.06567 131.831 6.88715 130.009 9.84707C128.188 12.7501 126.081 15.8239 123.691 19.0115C121.869 21.4591 120.617 23.1098 119.877 24.0775C119.194 24.9882 117.885 26.6959 116.006 29.1435V31.0788C117.145 29.9404 118.169 28.8589 119.08 27.8913C119.991 26.9236 120.788 26.1267 121.357 25.5005C121.983 24.8744 122.666 24.2483 123.577 23.5083C124.089 23.1098 124.658 22.6545 125.228 22.1991C125.797 21.7437 126.309 21.4022 126.708 21.1176C127.163 20.8329 127.561 20.7191 128.017 20.7191C128.415 20.7191 128.871 20.9468 129.326 21.4591C129.781 21.9714 129.952 22.4837 130.009 23.0529C130.009 23.3944 129.952 23.736 129.781 24.0775C129.611 24.419 129.383 24.8175 129.098 25.3298C128.814 25.8421 128.529 26.2405 128.244 26.5821C127.96 26.9236 127.561 27.5497 126.935 28.4605C126.708 28.802 126.48 29.2004 126.252 29.5989C126.025 29.9974 125.797 30.3958 125.683 30.7942C125.512 31.1927 125.455 31.5911 125.398 31.9327C125.512 32.388 125.74 32.6157 125.968 32.7296C126.821 33.0711 128.814 31.8189 131.944 28.9728C132.172 27.8343 132.571 26.6959 133.14 25.5575C134.164 23.3945 135.53 21.6299 137.295 20.2068C139.06 18.7838 140.881 17.9869 142.816 17.8731C144.979 17.7592 146.118 18.6699 146.118 20.5483C146.118 21.6299 145.776 22.6544 145.15 23.679C144.239 25.2159 142.93 26.4682 141.28 27.4359C139.629 28.4036 137.921 29.2574 136.157 29.9974C136.1 30.3958 135.986 30.8512 135.929 31.3066C135.929 32.1035 136.214 32.7296 136.669 33.185C137.181 33.6403 137.807 33.868 138.604 33.9819C138.832 33.925 139.06 33.868 139.344 33.868C140.084 33.6973 140.767 33.4127 141.45 32.9573C142.133 32.5588 143.101 31.7619 144.296 30.6804C145.492 29.5989 146.516 28.6312 147.256 27.8343L147.313 28.1759V28.119C147.939 26.2405 148.679 24.7606 149.419 23.6221C150.501 22.0852 151.184 21.1745 151.469 20.9468C151.753 20.6622 152.322 20.5483 153.119 20.5483H154.087C154.884 20.5483 155.282 20.8899 155.282 21.6299C155.282 22.1991 154.998 22.8822 154.428 23.736C153.859 24.5898 153.119 25.6713 152.095 26.9805C151.127 28.2897 150.501 29.1435 150.273 29.5989C150.159 29.8835 150.102 30.1112 150.045 30.282C150.045 30.5097 150.216 30.6804 150.444 30.7942C150.785 30.6804 151.013 30.5097 151.127 30.282C152.778 27.8343 154.713 25.6144 156.933 23.5083C157.388 22.9391 158.47 21.9145 160.178 20.5483C161.828 19.1822 163.024 18.4423 163.593 18.3284C163.821 18.3284 164.048 18.7838 164.39 19.6945C164.674 20.6053 164.845 21.4591 164.845 22.1422C164.845 22.6545 164.845 22.8822 164.788 22.996C164.504 23.5652 163.877 24.476 162.91 25.7282C161.999 26.9805 161.259 28.062 160.69 28.9728C160.178 29.8835 159.893 30.7373 159.836 31.5343C159.893 31.7619 159.95 31.9896 160.007 32.1035C160.064 32.2173 160.121 32.3881 160.178 32.445C160.234 32.5588 160.348 32.6157 160.462 32.7296C161.031 32.6727 161.771 32.2742 162.682 31.4204C163.536 30.6235 164.788 29.4281 166.439 27.7774C167.122 25.899 168.545 24.0206 170.651 22.1991C171.334 21.6299 172.416 20.9468 173.896 20.1499C175.376 19.2961 176.628 18.8976 177.652 18.8976C178.791 18.8976 179.417 19.4099 179.645 20.3776C180.783 17.5315 181.751 15.1408 182.662 13.2055C183.572 11.2701 184.426 9.67632 185.28 8.36712C186.134 7.05793 186.931 6.43177 187.671 6.43177C188.069 6.43177 188.468 6.65948 188.695 7.05793C188.98 7.45638 189.094 7.96867 189.094 8.53788C189.094 9.67632 188.411 11.6117 186.988 14.23C183.914 19.8084 181.751 23.9637 180.556 26.6959C180.043 27.7774 179.759 29.3143 179.645 31.2496C179.759 32.7865 180.1 33.5834 180.556 33.5834C181.068 33.5834 181.751 33.2419 182.548 32.5588C183.231 31.9896 184.369 30.9081 186.077 29.3143C186.646 28.5743 187.215 27.7205 187.841 26.6959C187.045 26.6959 186.646 26.2405 186.646 25.2729C186.646 24.1914 187.045 22.8822 187.898 21.4591C188.752 20.0361 189.834 18.8407 191.257 17.8731C191.598 17.7592 191.883 17.6453 192.054 17.6453C192.509 17.6453 192.737 17.9299 192.737 18.5561C192.737 18.9545 192.623 19.4099 192.395 19.9791C196.266 19.4099 198.258 19.0684 198.315 19.0684C198.884 19.0684 199.34 19.4099 199.567 20.1499C199.795 20.8899 199.966 21.6299 199.966 22.5406C199.966 23.0529 199.966 23.3375 199.909 23.4514C199.852 23.6791 199.283 24.3621 198.372 25.3867C197.404 26.4682 196.664 27.4928 196.095 28.4605C195.526 29.7697 195.184 30.7373 195.127 31.3066C195.298 32.1035 195.697 32.6157 196.437 32.7865C197.347 32.7296 198.884 31.5912 201.047 29.3143C201.56 27.6636 202.584 26.0698 204.121 24.476C205.886 22.7114 207.935 21.2314 210.212 20.0361C212.489 18.8407 214.367 18.2146 215.847 18.0438H216.245C216.928 18.0438 217.555 18.2715 218.124 18.7269C218.693 19.1822 218.921 19.8084 218.921 20.5483C218.921 20.9468 218.465 21.3453 217.555 21.7437C218.295 22.1991 218.693 22.8252 218.693 23.679C218.693 24.5329 218.352 25.4436 217.668 26.4113C216.018 28.802 215.164 30.5666 215.164 31.705C215.221 32.3881 215.562 32.7865 216.245 32.9004C217.384 33.0711 219.49 31.6481 222.45 28.6312L222.791 30.7373C221.198 32.7296 219.376 34.608 217.327 36.4295C215.278 38.251 213.798 38.991 212.887 38.7633C211.862 38.4787 211.35 37.6249 211.236 36.1449C211.293 34.5511 211.862 32.5588 212.83 30.1112L212.773 29.9974C211.749 31.0219 210.667 32.1035 209.586 33.2419C208.504 34.3234 207.536 35.2342 206.683 35.9741C205.829 36.6572 205.203 37.1695 204.69 37.3402C204.064 37.5679 203.267 36.9987 202.3 35.5188C201.503 34.3803 201.047 33.2419 200.877 32.0465C199.681 33.4696 198.543 34.6649 197.461 35.6326C195.867 37.0556 194.672 37.7956 193.875 37.8525C193.249 37.9095 192.623 37.6249 191.997 36.9418C191.371 36.2588 191.029 35.348 190.915 34.1526C190.801 32.7296 191.029 31.3635 191.655 30.0543C192.281 28.7451 193.306 27.0943 194.729 25.0452L194.672 24.9313C194.444 24.9882 193.647 25.2159 192.338 25.5575C191.029 25.899 190.346 26.0698 190.289 26.1267C189.891 26.8667 189.492 27.6066 189.037 28.1759C188.695 28.6312 188.24 29.2004 187.728 29.7697C183.117 35.6895 179.816 38.4218 177.88 37.8525C176.685 37.5679 176.059 36.2018 176.002 33.8111C176.116 32.2173 176.229 30.965 176.4 30.1112C173.782 33.0142 172.131 34.8357 171.391 35.5757C170.651 36.3157 169.911 36.6572 169.057 36.7141C168.147 36.6003 167.407 35.8034 166.78 34.3234C166.268 33.0711 165.984 31.8189 165.927 30.6804C164.219 32.7296 162.682 34.4372 161.373 35.7464C159.779 37.3402 158.413 38.1372 157.275 38.1372C156.535 38.1372 156.022 37.9095 155.795 37.3972C155.567 36.9418 155.339 36.0311 154.998 34.7219C155.055 32.7865 156.25 29.7697 158.584 25.6713L158.527 25.5575C157.445 26.4682 156.478 27.5497 155.51 28.802C154.542 30.0543 153.575 31.4204 152.55 32.9573C151.525 34.4942 150.956 35.348 150.785 35.5188C150.102 36.4295 149.362 36.9418 148.566 36.9987C147.939 36.9418 147.427 36.4864 147.029 35.6326C146.63 34.7788 146.402 33.6973 146.402 32.3311C146.346 31.9327 146.403 31.4773 146.459 30.965C144.752 33.1281 143.101 34.7788 141.507 35.9172C139.629 37.3402 137.921 38.0233 136.441 38.0233C135.018 38.0233 133.88 37.3972 133.026 36.1449C132.172 34.8926 131.717 33.2988 131.66 31.3635C128.188 34.7788 125.626 36.771 123.918 37.3972C123.349 37.511 122.951 37.6248 122.723 37.6248C121.471 37.6248 120.902 36.6572 121.015 34.6649C121.072 33.6404 121.357 32.5019 121.869 31.3635C122.382 30.225 122.951 29.0297 123.748 27.8343C124.488 26.639 125.057 25.7852 125.341 25.2729L125.285 25.2159C123.862 26.2974 122.552 27.6067 121.3 28.9728C120.048 30.3389 118.966 31.6481 118.112 32.8434C117.202 34.0388 116.632 34.8357 116.348 35.2342C115.608 36.2588 114.982 36.771 114.526 36.828C113.559 36.6003 113.046 34.8357 113.046 31.4773C113.046 31.4204 113.046 31.3066 113.046 31.2496C111.623 32.9573 110.03 34.5511 108.265 36.1449C106.216 37.9664 104.736 38.7064 103.825 38.4787C102.801 38.1941 102.288 37.3402 102.174 35.8603C102.231 34.2665 102.8 32.2742 103.768 29.8266L103.711 29.7128C102.687 30.7373 101.605 31.8189 100.524 32.9573C99.4421 34.0388 98.4744 34.9495 97.6206 35.6895C96.7668 36.3726 96.1407 36.8849 95.6284 37.0556C95.0022 37.2833 94.2053 36.7141 93.2377 35.2342C92.27 33.8111 91.8146 32.445 91.7577 31.0219C91.5869 31.2496 91.4162 31.4204 91.2454 31.6481C89.9362 33.0711 88.6839 34.3803 87.4886 35.4618C84.4717 38.1371 82.081 39.5033 80.3734 39.5033C78.2673 39.5033 77.0719 37.4541 76.8442 33.4127C76.8442 30.7943 77.5842 28.062 79.0072 25.1021C80.4303 22.1991 82.4795 18.5561 85.2117 14.3439C83.6748 15.71 81.9102 17.4746 79.8611 19.7515C77.8119 22.0283 76.2181 23.9067 75.1935 25.4436L68.5906 35.0065C67.1106 37.2264 65.9722 38.3079 65.2322 38.3079C64.5491 38.3079 64.0368 37.7956 63.6953 36.771C63.3538 35.7464 63.1261 34.6649 63.0692 33.5834C63.1261 32.2173 63.5245 30.9081 64.2645 29.7697C65.0614 28.5743 67.7937 23.8498 72.4043 15.71C73.9981 12.807 74.795 10.8717 74.795 9.84707C74.795 9.50554 74.6812 9.3348 74.4535 9.3348C74.2827 9.3348 73.9981 9.56247 73.6566 9.96092L62.9553 24.2482C62.7276 24.5329 62.1015 25.5574 61.0769 27.3789C60.0523 29.2004 59.1416 30.7373 58.4016 32.0465C57.6616 33.3557 56.9785 34.4942 56.3524 35.5757C55.4416 37.0556 54.5309 37.7956 53.734 37.7956C52.311 37.7956 51.3433 35.9172 50.7172 32.1035C51.571 30.6235 52.7663 28.6881 54.4171 26.2405C56.0678 23.7929 57.377 21.7437 58.3447 20.1499C59.3123 18.5561 60.1092 16.9623 60.6784 15.4254C60.7923 15.1408 61.02 14.4577 61.4753 13.4331C61.8738 12.4085 62.2153 11.4409 62.4999 10.5301C62.7846 9.61939 62.8984 8.93633 62.8984 8.42403C62.8984 7.91174 62.6707 7.62715 62.2153 7.62715C62.0446 7.62715 61.76 7.74099 61.3615 7.91176C58.3447 9.73325 56.4093 10.9286 55.4417 11.4978C54.474 12.067 52.5387 13.3762 49.6356 15.3685C49.4649 15.5392 48.9526 15.6531 48.2695 15.7669C47.3588 15.6531 46.9034 15.0839 46.9603 14.1731L47.7003 9.61941C47.7572 8.70866 48.0418 7.91175 48.4972 7.22869C48.9526 6.54563 49.5787 5.86255 50.3756 5.17949C51.1725 4.49643 51.7987 4.04107 52.1971 3.69954C52.3679 3.52877 52.6525 3.41493 52.994 3.41493C53.2217 3.41493 53.3356 3.52876 53.3356 3.75645C53.3356 4.32566 52.6525 5.35026 51.2294 6.71638L51.2864 6.83023C52.3679 6.26101 54.0186 5.35026 56.1816 4.15491C58.3447 2.90263 59.9954 1.99189 61.1907 1.42267C62.3861 0.853456 63.2969 0.568848 63.9799 0.568848C64.5491 0.568848 64.9476 0.682698 65.0614 0.967306C65.346 1.36576 65.8014 2.16267 66.3137 3.35802C66.826 4.55338 67.1106 5.35025 67.1675 5.74871C67.2244 6.14716 67.1106 6.88714 66.826 8.02557C66.5414 9.16401 66.1429 10.4163 65.7445 11.7255C65.0045 13.4901 64.6061 14.6285 64.2645 15.71Z" fill="#3A3C99"/>
<path d="M220.458 44.6266C220.287 44.9112 220.629 45.2527 220.458 45.5373C192.168 43.3743 160.804 42.1789 138.035 50.7172C137.978 49.0664 137.921 49.2372 137.808 47.5865C163.252 41.2113 192.794 42.122 220.458 44.6266Z" fill="#FB302E"/>
</svg>
