<?xml version="1.0" encoding="utf-8"?>
<!-- Generator: Adobe Illustrator 27.7.0, SVG Export Plug-In . SVG Version: 6.00 Build 0)  -->
<svg version="1.1" id="Layer_2" xmlns="http://www.w3.org/2000/svg" xmlns:xlink="http://www.w3.org/1999/xlink" x="0px" y="0px"
	 viewBox="0 0 153.8 153.8" style="enable-background:new 0 0 153.8 153.8;" xml:space="preserve">
<g>
	<rect style="fill:#FFFFFF;" width="153.8" height="153.8"/>
	<g>
		<path style="fill:#803E3C;" d="M65.7,117.9c-0.3-0.2-0.7-0.3-1.1-0.3c-0.4,0-0.8,0-1.1,0.2v0.6c0.2-0.2,0.5-0.3,0.8-0.4
			c0.3,0,0.6,0,0.9,0.2c0.3,0.1,0.5,0.4,0.7,0.7c0.2,0.3,0.3,0.7,0.3,1.2v1.8c0,0.7-0.2,1.2-0.5,1.5c-0.3,0.3-0.7,0.5-1.1,0.5
			c-0.4,0-0.8-0.2-1.1-0.5c-0.3-0.3-0.5-0.8-0.5-1.5v-0.7v-3v-2.6H62v4.4v1.1v0.7c0,0.5,0.1,1,0.4,1.4c0.2,0.4,0.5,0.6,0.9,0.8
			c0.4,0.2,0.7,0.3,1.2,0.3c0.4,0,0.8-0.1,1.2-0.3c0.4-0.2,0.7-0.4,0.9-0.8c0.2-0.4,0.4-0.8,0.4-1.4V120c0-0.5-0.1-1-0.3-1.3
			C66.3,118.3,66,118.1,65.7,117.9"/>
		<path style="fill:#803E3C;" d="M74.3,117.7c-0.4-0.1-0.9-0.2-1.3-0.1c-0.5,0.1-0.9,0.3-1.2,0.6v-2.6H71v4.4v0.4v0.5v3.3h0.8v-3.3
			v-0.5V120c0-0.7,0.2-1.2,0.5-1.5c0.3-0.3,0.7-0.5,1.1-0.5c0.4,0,0.8,0.2,1.1,0.5c0.3,0.3,0.5,0.9,0.5,1.5v4.2h0.8v-2.9V120
			c0-0.6-0.1-1.1-0.4-1.5C75.1,118.1,74.8,117.9,74.3,117.7"/>
		<path style="fill:#803E3C;" d="M90.3,117.7c-0.2,0.1-0.4,0.2-0.6,0.4c-0.2,0.2-0.3,0.4-0.4,0.6c-0.1,0.2-0.2,0.5-0.2,0.8v1.1v3.6
			h0.8v-3.6v-1.2c0-0.5,0.1-0.8,0.4-1.1c0.2-0.2,0.5-0.4,0.8-0.4c0.2,0,0.4,0.1,0.6,0.2l0.2-0.5c-0.2-0.1-0.5-0.1-0.8-0.1
			C90.8,117.6,90.5,117.6,90.3,117.7"/>
		<path style="fill:#803E3C;" d="M99.7,117.9c-0.3-0.2-0.7-0.3-1.1-0.3c-0.4,0-0.8,0-1.1,0.2v0.6c0.2-0.2,0.5-0.3,0.8-0.4
			c0.3,0,0.6,0,0.9,0.2c0.3,0.1,0.5,0.4,0.7,0.7c0.2,0.3,0.3,0.7,0.3,1.2v0c-0.1-0.1-0.3-0.2-0.5-0.3c-0.4-0.2-0.7-0.3-1.2-0.3
			c-0.4,0-0.8,0.1-1.2,0.3c-0.4,0.2-0.7,0.4-0.9,0.8c-0.2,0.3-0.3,0.7-0.4,1.1h0v0.2c0,0,0,0,0,0c0,0,0,0,0,0v0.2h0
			c0,0.4,0.1,0.8,0.4,1.1c0.2,0.4,0.5,0.6,0.9,0.8c0.4,0.2,0.7,0.3,1.2,0.3c0.4,0,0.8-0.1,1.2-0.3c0.2-0.1,0.3-0.2,0.5-0.3v0.4h0.8
			v-2.1c0,0,0,0,0,0c0,0,0,0,0,0v-0.3v-1.4V120c0-0.5-0.1-1-0.3-1.3C100.3,118.3,100,118.1,99.7,117.9 M99.5,123.3
			c-0.3,0.3-0.7,0.5-1.1,0.5c-0.4,0-0.8-0.2-1.1-0.5c-0.3-0.3-0.5-0.8-0.5-1.5c0-0.7,0.2-1.2,0.5-1.5c0.3-0.3,0.7-0.5,1.1-0.5
			c0.4,0,0.8,0.2,1.1,0.5c0.3,0.3,0.5,0.8,0.5,1.5C100,122.5,99.9,123,99.5,123.3z"/>
		<path style="fill:#803E3C;" d="M83.7,117.9c-0.3-0.2-0.7-0.3-1.1-0.3c-0.4,0-0.8,0-1.1,0.2v0.6c0.2-0.2,0.5-0.3,0.8-0.4
			c0.3,0,0.6,0,0.9,0.2c0.3,0.1,0.5,0.4,0.7,0.7c0.2,0.3,0.3,0.7,0.3,1.2v0c-0.1-0.1-0.3-0.2-0.5-0.3c-0.4-0.2-0.7-0.3-1.2-0.3
			c-0.4,0-0.8,0.1-1.2,0.3c-0.4,0.2-0.7,0.4-0.9,0.8c-0.2,0.3-0.3,0.7-0.3,1.1h0v0.2c0,0,0,0,0,0c0,0,0,0,0,0v0.2h0
			c0,0.4,0.1,0.8,0.3,1.1c0.2,0.4,0.5,0.6,0.9,0.8c0.4,0.2,0.7,0.3,1.2,0.3c0.4,0,0.8-0.1,1.2-0.3c0.2-0.1,0.3-0.2,0.5-0.3v0.4h0.8
			v-2.1c0,0,0,0,0,0c0,0,0,0,0,0v-0.3v-1.4V120c0-0.5-0.1-1-0.3-1.3C84.3,118.3,84.1,118.1,83.7,117.9 M83.6,123.3
			c-0.3,0.3-0.7,0.5-1.1,0.5c-0.4,0-0.8-0.2-1.1-0.5c-0.3-0.3-0.5-0.8-0.5-1.5c0-0.7,0.2-1.2,0.5-1.5c0.3-0.3,0.7-0.5,1.1-0.5
			c0.4,0,0.8,0.2,1.1,0.5c0.3,0.3,0.5,0.8,0.5,1.5C84.1,122.5,83.9,123,83.6,123.3z"/>
		<path style="fill:#803E3C;" d="M56.6,117.9c-0.3-0.2-0.7-0.3-1.1-0.3c-0.4,0-0.8,0-1.1,0.2v0.6c0.2-0.2,0.5-0.3,0.8-0.4
			c0.3,0,0.6,0,0.9,0.2c0.3,0.1,0.5,0.4,0.7,0.7c0.2,0.3,0.3,0.7,0.3,1.2v0c-0.1-0.1-0.3-0.2-0.5-0.3c-0.4-0.2-0.7-0.3-1.2-0.3
			c-0.4,0-0.8,0.1-1.2,0.3c-0.4,0.2-0.7,0.4-0.9,0.8c-0.2,0.3-0.3,0.7-0.4,1.1h0v0.2c0,0,0,0,0,0c0,0,0,0,0,0v0.2h0
			c0,0.4,0.1,0.8,0.4,1.1c0.2,0.4,0.5,0.6,0.9,0.8c0.4,0.2,0.7,0.3,1.2,0.3c0.4,0,0.8-0.1,1.2-0.3c0.2-0.1,0.3-0.2,0.5-0.3v0.4h0.8
			v-2.1c0,0,0,0,0,0c0,0,0,0,0,0v-0.3v-1.4V120c0-0.5-0.1-1-0.3-1.3C57.2,118.3,57,118.1,56.6,117.9 M56.5,123.3
			c-0.3,0.3-0.7,0.5-1.1,0.5c-0.4,0-0.8-0.2-1.1-0.5c-0.3-0.3-0.5-0.8-0.5-1.5c0-0.7,0.2-1.2,0.5-1.5c0.3-0.3,0.7-0.5,1.1-0.5
			c0.4,0,0.8,0.2,1.1,0.5c0.3,0.3,0.5,0.8,0.5,1.5C57,122.5,56.8,123,56.5,123.3z"/>
		<path style="fill:#803E3C;" d="M47.6,117.9c-0.3-0.2-0.7-0.3-1.1-0.3c-0.4,0-0.8,0-1.1,0.2v0.6c0.2-0.2,0.5-0.3,0.8-0.4
			c0.3,0,0.6,0,0.9,0.2c0.3,0.1,0.5,0.4,0.7,0.7c0.2,0.3,0.3,0.7,0.3,1.2v0c-0.1-0.1-0.3-0.2-0.5-0.3c-0.4-0.2-0.7-0.3-1.2-0.3
			c-0.4,0-0.8,0.1-1.2,0.3c-0.4,0.2-0.7,0.4-0.9,0.8c-0.2,0.3-0.3,0.7-0.4,1.1h0v0.2c0,0,0,0,0,0c0,0,0,0,0,0v0.2h0
			c0,0.4,0.1,0.8,0.4,1.1c0.2,0.4,0.5,0.6,0.9,0.8c0.4,0.2,0.7,0.3,1.2,0.3c0.4,0,0.8-0.1,1.2-0.3c0.2-0.1,0.3-0.2,0.5-0.3v0.4h0.8
			v-2.1c0,0,0,0,0,0c0,0,0,0,0,0v-0.3v-1.4V120c0-0.5-0.1-1-0.3-1.3C48.2,118.3,47.9,118.1,47.6,117.9 M47.5,123.3
			c-0.3,0.3-0.7,0.5-1.1,0.5c-0.4,0-0.8-0.2-1.1-0.5c-0.3-0.3-0.5-0.8-0.5-1.5c0-0.7,0.2-1.2,0.5-1.5c0.3-0.3,0.7-0.5,1.1-0.5
			c0.4,0,0.8,0.2,1.1,0.5c0.3,0.3,0.5,0.8,0.5,1.5C48,122.5,47.8,123,47.5,123.3z"/>
		<path style="fill:#803E3C;" d="M109.5,118.6c-0.2-0.4-0.5-0.6-0.9-0.8c-0.4-0.2-0.7-0.3-1.2-0.3c-0.4,0-0.8,0.1-1.2,0.3
			c-0.4,0.2-0.7,0.4-0.9,0.8c-0.2,0.4-0.4,0.8-0.4,1.4v0.4v0.4v3.3h0.8v-3.3v-0.4V120c0-0.7,0.2-1.2,0.5-1.5
			c0.3-0.3,0.7-0.5,1.1-0.5c0.4,0,0.8,0.2,1.1,0.5c0.3,0.3,0.5,0.9,0.5,1.5v4.2h0.8v-2.9V120C109.9,119.5,109.7,119,109.5,118.6"/>
		<path style="fill:#B58676;" d="M87,36.8c-0.1-0.1-0.2-0.2-0.3-0.2c0.4-0.1,0.8-0.2,1.2-0.4c1.2-0.7,2.1-2,2.1-3.5
			c0-0.1,0-0.1,0-0.2c0,0,0,0,0-0.1l-4.3,2c0-0.1,0-0.2,0-0.3v-0.1c0-0.9-0.2-1.8-0.6-2.6c0-0.1-0.1-0.1-0.1-0.2
			C83.6,29,80.8,28,78.3,29l0.6,1.4c1.8-0.6,3.7,0.1,4.7,1.8l0.1,0.1c0.3,0.6,0.5,1.2,0.5,1.9v0.1c0,0.3-0.1,0.7-0.2,1c0,0,0,0,0,0
			c-0.1,0.1-0.3,0.1-0.4,0.2c0-0.1-0.1-0.3-0.1-0.4c-0.3-1.2-1-2.1-1.9-2.6c-0.3-0.2-0.7-0.3-1-0.3c-0.6-0.1-0.7,0-0.8,0l0.7,1.6
			c0,0,0.4,0.1,0.4,0.1c0.6,0.3,1,0.9,1.2,1.6c0.1,0.2,0.1,0.4,0.1,0.7c-2.3,1.1-5.3,2.6-5.3,2.6l-1.5,0.7c-1.1,2,1,2.2,1,2.2
			c1.2,0,2.4-0.1,3.6-0.1c0.6,0,1.1,0.1,1.6,0.2c2.1,0.5,3.7,2.1,3.7,3.9c0,1.8-1.4,3.3-3.4,3.9c-1.6,0.5-3.3,0.2-4.9,0.2h-0.1
			c-5.7,0-10.9,4-12.8,9.4c-0.2,0.5-0.3,1-0.4,1.5c0,0,0,0,0,0c0,0,0,0,0,0c-1.4,4.6-1.2,10.1,0.9,14.5c0.1,0.2,0.2,0.3,0.2,0.5H66
			c-0.4-1.3-0.8-3-0.8-4.9c0-1.8,0.3-3.8,1.3-5.8c0-0.1,0-0.1,0.1-0.2c-0.1,0.2,0,0.6,0,0.8c0,0.7,0,1.4,0,2.1
			c0.1,2.1,0.5,4.2,1.2,6.2c0.1,0.2,0.5,1.8,0.8,1.8h1.5c-1.3-4.1-1.8-8.3-0.5-12.4c0.8-2.3,2.5-4.2,5.1-4.2c2.5,0,4.7,1.8,5.4,4.2
			c0.5,1.8,0.1,3.9-1.2,5.3c-0.5,0.5-1.2,1-2,1.4c0,0-1.2,0.5-1.8,0.6l1.1,0.7c0.2,0,0.5-0.1,0.7-0.1c0.7-0.1,1.5-0.2,2.1-0.5
			c0.7-0.3,1.2-0.7,1.8-1.2c0.3-0.2,0.5-0.5,0.8-0.8c0.1-0.1,0.5-0.6,0.5-0.8c0,0,0.9,3.9,3.7,7.7h2c-0.3-0.3-1.1-1.5-1.2-1.8
			c-3.4-6.6-1.8-11.6,0.3-16c0,0,0,0,0,0c0.6-1.3,1.3-2.5,1.9-3.8c1.3-2.6,2.5-5.2,2.5-8.2C91,42.3,89.4,39,87,36.8"/>
		<path style="fill:#803E3C;" d="M36.6,99.5l-4.1-11.1c-0.3-0.8-0.7-1.5-1.3-2c-0.6-0.5-1.2-0.8-1.9-0.9c-0.4-0.1-0.9-0.1-1.3-0.1
			c0,0,0,0-0.1,0h-2.3v19.5h1.8V99v-0.9V86.2c0.6-0.1,1.2,0.1,1.8,0.4c0.6,0.4,1.1,1.1,1.4,2.1l5.9,16.1h1.8V85.3h-1.8V99.5z"/>
		<path style="fill:#803E3C;" d="M127.4,91.7c-0.5-0.8-1.2-1.5-2-1.9c-0.8-0.4-1.7-0.7-2.6-0.8c-0.9-0.1-1.8,0.1-2.7,0.4v1.4
			c0.6-0.5,1.2-0.8,1.9-0.8c0.7-0.1,1.4,0,2,0.4c0.6,0.3,1.2,0.9,1.6,1.6c0.4,0.7,0.6,1.7,0.6,2.8v0.1c-0.3-0.3-0.7-0.6-1.1-0.8
			c-0.8-0.4-1.8-0.6-2.7-0.6c-1,0-1.9,0.2-2.7,0.6c-0.8,0.4-1.5,1.1-2.1,1.9c-0.5,0.7-0.8,1.6-0.8,2.6h0v0.4c0,0,0,0.1,0,0.1
			c0,0,0,0.1,0,0.1v0.4h0c0.1,1,0.3,1.9,0.8,2.6c0.6,0.9,1.3,1.5,2.1,1.9c0.8,0.4,1.8,0.6,2.7,0.6c1,0,1.9-0.2,2.7-0.6
			c0.4-0.2,0.8-0.5,1.1-0.8v0.9h1.8v-5.1c0,0,0-0.1,0-0.1c0,0,0-0.1,0-0.1v-0.7V95v-0.2C128.2,93.6,127.9,92.5,127.4,91.7
			 M125.1,102.7c-0.8,0.8-1.7,1.2-2.7,1.2c-1,0-1.8-0.4-2.7-1.2c-0.8-0.8-1.2-2-1.2-3.5c0-1.6,0.4-2.7,1.2-3.5
			c0.8-0.8,1.7-1.2,2.7-1.2c1,0,1.8,0.4,2.7,1.2c0.8,0.8,1.2,2,1.2,3.5C126.3,100.8,125.9,101.9,125.1,102.7z"/>
		<path style="fill:#803E3C;" d="M71.5,100.9c-0.2,1-0.6,1.8-1.2,2.3c-0.4,0.3-0.8,0.6-1.3,0.6c-0.1,0-0.2,0-0.3,0c0,0-0.1,0-0.1,0
			h0c-0.1,0-0.1,0-0.1,0c-0.4-0.1-0.9-0.3-1.3-0.7c-0.6-0.5-1-1.3-1.1-2.3L63.9,89h-1.8l2.1,11.9c0.1,0.9,0.5,1.6,1,2.2
			c0.5,0.6,1.1,1,1.8,1.2c0.6,0.2,1.1,0.3,1.7,0.3v0c0.6,0,1.3-0.1,1.9-0.3c0.7-0.2,1.3-0.6,1.8-1.2c0.5-0.6,0.9-1.3,1-2.2l2-11.9
			l-1.8,0L71.5,100.9z"/>
		<path style="fill:#803E3C;" d="M107.9,89.8c-0.8-0.4-1.7-0.7-2.6-0.8c-0.9-0.1-1.8,0.1-2.7,0.4v1.4c0.6-0.5,1.2-0.8,1.9-0.8
			c0.7-0.1,1.4,0,2,0.4c0.6,0.3,1.2,0.9,1.6,1.6c0.4,0.7,0.6,1.7,0.6,2.8v0.1c-0.3-0.3-0.7-0.6-1.1-0.8c-0.8-0.4-1.8-0.6-2.7-0.6
			c-1,0-1.9,0.2-2.7,0.6c-0.8,0.4-1.5,1.1-2.1,1.9c-0.5,0.7-0.8,1.6-0.8,2.6h0v0.4c0,0,0,0.1,0,0.1c0,0,0,0.1,0,0.1v0.4h0
			c0.1,1,0.3,1.9,0.8,2.6c0.6,0.9,1.3,1.5,2.1,1.9c0.8,0.4,1.8,0.6,2.7,0.6c1,0,1.9-0.2,2.7-0.6c0.4-0.2,0.8-0.5,1.1-0.8v0.9h1.8
			v-5.1c0,0,0-0.1,0-0.1c0,0,0-0.1,0-0.1v-0.7V95v-0.2c0-1.2-0.3-2.3-0.8-3.1C109.3,90.9,108.6,90.2,107.9,89.8 M107.5,102.7
			c-0.8,0.8-1.7,1.2-2.7,1.2c-1,0-1.8-0.4-2.7-1.2c-0.8-0.8-1.2-2-1.2-3.5c0-1.6,0.4-2.7,1.2-3.5c0.8-0.8,1.7-1.2,2.7-1.2
			c1,0,1.8,0.4,2.7,1.2c0.8,0.8,1.2,2,1.2,3.5C108.7,100.8,108.3,101.9,107.5,102.7z"/>
		<path style="fill:#803E3C;" d="M53.2,89.8c-0.8-0.4-1.6-0.7-2.6-0.8c-0.9-0.1-1.8,0.1-2.7,0.4v1.4c0.6-0.5,1.2-0.8,1.9-0.8
			c0.7-0.1,1.4,0,2,0.4c0.6,0.3,1.2,0.9,1.6,1.6c0.4,0.7,0.6,1.7,0.6,2.8v0.1c-0.3-0.3-0.7-0.6-1.1-0.8c-0.8-0.4-1.8-0.6-2.7-0.6
			c-1,0-1.9,0.2-2.7,0.6c-0.8,0.4-1.5,1.1-2.1,1.9c-0.5,0.7-0.8,1.6-0.8,2.6h0v0.4c0,0,0,0.1,0,0.1c0,0,0,0.1,0,0.1v0.4h0
			c0.1,1,0.4,1.9,0.8,2.6c0.6,0.9,1.3,1.5,2.1,1.9c0.8,0.4,1.8,0.6,2.7,0.6c1,0,1.9-0.2,2.7-0.6c0.4-0.2,0.8-0.5,1.1-0.8v0.9h1.8
			v-5.1c0,0,0-0.1,0-0.1c0,0,0-0.1,0-0.1v-0.7V95v-0.2c0-1.2-0.3-2.3-0.8-3.1C54.6,90.9,54,90.2,53.2,89.8 M52.9,102.7
			c-0.8,0.8-1.7,1.2-2.7,1.2c-1,0-1.8-0.4-2.7-1.2c-0.8-0.8-1.2-2-1.2-3.5c0-1.6,0.4-2.7,1.2-3.5c0.8-0.8,1.7-1.2,2.7-1.2
			c1,0,1.8,0.4,2.7,1.2c0.8,0.8,1.2,2,1.2,3.5C54.1,100.8,53.7,101.9,52.9,102.7z"/>
		<path style="fill:#803E3C;" d="M91.2,98.7v0.2v0.2v0c0,1.6-0.4,2.8-1.2,3.6c-0.8,0.8-1.7,1.2-2.7,1.2c-1,0-1.8-0.4-2.7-1.2
			c-0.8-0.8-1.2-2-1.2-3.6V89h-1.8v10.1c0,1.4,0.3,2.6,1,3.5c0.7,0.9,1.5,1.5,2.5,1.9c1,0.4,2,0.5,3.1,0.3c1.1-0.2,2-0.6,2.9-1.3
			v1.6c0,1-0.2,1.8-0.5,2.5c-0.3,0.7-0.8,1.2-1.3,1.6c-0.5,0.4-1.1,0.6-1.7,0.7c-0.6,0.1-1.2,0-1.8-0.3l-0.3,1
			c0.8,0.3,1.7,0.3,2.6,0.2c0.9-0.1,1.7-0.4,2.4-0.9c0.7-0.5,1.3-1.1,1.8-1.9c0.5-0.8,0.7-1.8,0.7-3V89h-1.8V98.7z"/>
	</g>
</g>
</svg>
